{
  "accessors": [
    {
      "bufferView": 2,
      "componentType": 5126,
      "count": 890,
      "max": [
        5.951000213623047,
        -0.996999979019165,
        42.935001373291016
      ],
      "min": [
        -5.951000213623047,
        -7.609000205993652,
        28.77400016784668
      ],
      "type": "VEC3"
    },
    {
      "bufferView": 2,
      "byteOffset": 10680,
      "componentType": 5126,
      "count": 890,
      "max": [
        0.9998473525047302,
        0.9999502301216125,
        0.9431372880935669
      ],
      "min": [
        -0.9998473525047302,
        -0.999934732913971,
        -0.9954127669334412
      ],
      "type": "VEC3"
    },
    {
      "bufferView": 1,
      "componentType": 5126,
      "count": 890,
      "max": [
        0.9490000009536743,
        0.9879999756813049
      ],
      "min": [
        0.09600000083446503,
        0.027000000700354576
      ],
      "type": "VEC2"
    },
    {
      "bufferView": 0,
      "componentType": 5125,
      "count": 3408,
      "type": "SCALAR"
    },
    {
      "bufferView": 2,
      "byteOffset": 21360,
      "componentType": 5126,
      "count": 770,
      "max": [
        5.099999904632568,
        5.099999904632568,
        40.400001525878906
      ],
      "min": [
        -5.099999904632568,
        -5.099999904632568,
        28.81999969482422
      ],
      "type": "VEC3"
    },
    {
      "bufferView": 2,
      "byteOffset": 30600,
      "componentType": 5126,
      "count": 770,
      "max": [
        0.9990761876106262,
        0.9990761876106262,
        1.0
      ],
      "min": [
        -0.9990761876106262,
        -0.9990761876106262,
        -1.0
      ],
      "type": "VEC3"
    },
    {
      "bufferView": 1,
      "byteOffset": 7120,
      "componentType": 5126,
      "count": 770,
      "max": [
        0.9879999756813049,
        0.9819999933242798
      ],
      "min": [
        0.21299999952316284,
        0.014000000432133675
      ],
      "type": "VEC2"
    },
    {
      "bufferView": 0,
      "byteOffset": 13632,
      "componentType": 5125,
      "count": 3024,
      "type": "SCALAR"
    },
    {
      "bufferView": 2,
      "byteOffset": 39840,
      "componentType": 5126,
      "count": 1276,
      "max": [
        7.699999809265137,
        3.9600000381469727,
        34.599998474121094
      ],
      "min": [
        -7.699999809265137,
        -3.9600000381469727,
        16.020000457763672
      ],
      "type": "VEC3"
    },
    {
      "bufferView": 2,
      "byteOffset": 55152,
      "componentType": 5126,
      "count": 1276,
      "max": [
        1.0,
        1.0,
        1.0
      ],
      "min": [
        -1.0,
        -1.0,
        -1.0
      ],
      "type": "VEC3"
    },
    {
      "bufferView": 1,
      "byteOffset": 13280,
      "componentType": 5126,
      "count": 1276,
      "max": [
        0.9810000061988831,
        0.9290000200271606
      ],
      "min": [
        0.017999999225139618,
        0.03200000151991844
      ],
      "type": "VEC2"
    },
    {
      "bufferView": 0,
      "byteOffset": 25728,
      "componentType": 5125,
      "count": 4572,
      "type": "SCALAR"
    },
    {
      "bufferView": 2,
      "byteOffset": 70464,
      "componentType": 5126,
      "count": 410,
      "max": [
        -0.5,
        3.5999999046325684,
        14.800000190734863
      ],
      "min": [
        -7.699999809265137,
        -4.360000133514404,
        0.019999809563159943
      ],
      "type": "VEC3"
    },
    {
      "bufferView": 2,
      "byteOffset": 75384,
      "componentType": 5126,
      "count": 410,
      "max": [
        1.0,
        1.0,
        1.0
      ],
      "min": [
        -1.0,
        -1.0,
        -1.0
      ],
      "type": "VEC3"
    },
    {
      "bufferView": 1,
      "byteOffset": 23488,
      "componentType": 5126,
      "count": 410,
      "max": [
        0.9610000252723694,
        0.6669999957084656
      ],
      "min": [
        0.02800000086426735,
        0.3479999899864197
      ],
      "type": "VEC2"
    },
    {
      "bufferView": 0,
      "byteOffset": 44016,
      "componentType": 5125,
      "count": 1152,
      "type": "SCALAR"
    },
    {
      "bufferView": 2,
      "byteOffset": 80304,
      "componentType": 5126,
      "count": 410,
      "max": [
        7.699999809265137,
        3.5999999046325684,
        14.800000190734863
      ],
      "min": [
        0.5,
        -4.360000133514404,
        0.019999809563159943
      ],
      "type": "VEC3"
    },
    {
      "bufferView": 2,
      "byteOffset": 85224,
      "componentType": 5126,
      "count": 410,
      "max": [
        1.0,
        1.0,
        1.0
      ],
      "min": [
        -1.0,
        -1.0,
        -1.0
      ],
      "type": "VEC3"
    },
    {
      "bufferView": 1,
      "byteOffset": 26768,
      "componentType": 5126,
      "count": 410,
      "max": [
        0.9810000061988831,
        0.6669999957084656
      ],
      "min": [
        0.04800000041723251,
        0.3479999899864197
      ],
      "type": "VEC2"
    },
    {
      "bufferView": 0,
      "byteOffset": 48624,
      "componentType": 5125,
      "count": 1152,
      "type": "SCALAR"
    },
    {
      "bufferView": 2,
      "byteOffset": 90144,
      "componentType": 5126,
      "count": 2379,
      "max": [
        12.721467971801758,
        3.9600000381469727,
        27.669233322143555
      ],
      "min": [
        -12.721467971801758,
        -8.554441452026367,
        7.60099983215332
      ],
      "type": "VEC3"
    },
    {
      "bufferView": 2,
      "byteOffset": 118692,
      "componentType": 5126,
      "count": 2379,
      "max": [
        1.0,
        1.0,
        1.0
      ],
      "min": [
        -1.0,
        -1.0,
        -1.0
      ],
      "type": "VEC3"
    },
    {
      "bufferView": 0,
      "byteOffset": 53232,
      "componentType": 5125,
      "count": 9240,
      "type": "SCALAR"
    },
    {
      "bufferView": 2,
      "byteOffset": 147240,
      "componentType": 5126,
      "count": 1898,
      "max": [
        11.566813468933105,
        6.966000080108643,
        43.33700180053711
      ],
      "min": [
        -6.258999824523926,
        -5.693999767303467,
        16.262367248535156
      ],
      "type": "VEC3"
    },
    {
      "bufferView": 2,
      "byteOffset": 170016,
      "componentType": 5126,
      "count": 1898,
      "max": [
        1.0,
        1.0,
        0.9997979998588562
      ],
      "min": [
        -1.0,
        -1.0,
        -1.0
      ],
      "type": "VEC3"
    },
    {
      "bufferView": 0,
      "byteOffset": 90192,
      "componentType": 5125,
      "count": 7056,
      "type": "SCALAR"
    }
  ],
  "asset": {
    "extras": {
      "author": "Lego Mania (https://sketchfab.com/dankmememe)",
      "license": "CC-BY-4.0 (http://creativecommons.org/licenses/by/4.0/)",
      "source": "https://sketchfab.com/3d-models/lego-iron-man-5ba803fac82d41538b17ce6c8ae3fab5",
      "title": "LEGO Iron Man"
    },
    "generator": "Sketchfab-12.68.0",
    "version": "2.0"
  },
  "bufferViews": [
    {
      "buffer": 0,
      "byteLength": 118416,
      "name": "floatBufferViews",
      "target": 34963
    },
    {
      "buffer": 0,
      "byteLength": 30048,
      "byteOffset": 118416,
      "byteStride": 8,
      "name": "floatBufferViews",
      "target": 34962
    },
    {
      "buffer": 0,
      "byteLength": 192792,
      "byteOffset": 148464,
      "byteStride": 12,
      "name": "floatBufferViews",
      "target": 34962
    }
  ],
  "buffers": [
    {
      "byteLength": 341256,
      "uri": "scene.bin"
    }
  ],
  "images": [
    {
      "uri": "textures/Decoration_10908d1_baseColor.png"
    },
    {
      "uri": "textures/Decoration_3626d252_baseColor.png"
    },
    {
      "uri": "textures/Decoration_3814d316_baseColor.png"
    },
    {
      "uri": "textures/Decoration_3816d78_baseColor.png"
    },
    {
      "uri": "textures/Decoration_3817d78_baseColor.png"
    }
  ],
  "materials": [
    {
      "doubleSided": true,
      "name": "Color_154",
      "pbrMetallicRoughness": {
        "baseColorFactor": [
          0.1347365746,
          0.0,
          0.0094446173,
          1.0
        ],
        "metallicFactor": 0.0,
        "roughnessFactor": 0.0
      }
    },
    {
      "doubleSided": true,
      "name": "Decoration_10908d1",
      "pbrMetallicRoughness": {
        "baseColorTexture": {
          "index": 0
        },
        "metallicFactor": 0.0,
        "roughnessFactor": 0.0
      }
    },
    {
      "doubleSided": true,
      "name": "Decoration_3626d252",
      "pbrMetallicRoughness": {
        "baseColorTexture": {
          "index": 1
        },
        "metallicFactor": 0.0,
        "roughnessFactor": 0.0
      }
    },
    {
      "doubleSided": true,
      "name": "Decoration_3814d316",
      "pbrMetallicRoughness": {
        "baseColorTexture": {
          "index": 2
        },
        "metallicFactor": 0.0,
        "roughnessFactor": 0.0
      }
    },
    {
      "doubleSided": true,
      "name": "Decoration_3816d78",
      "pbrMetallicRoughness": {
        "baseColorTexture": {
          "index": 3
        },
        "metallicFactor": 0.0,
        "roughnessFactor": 0.0
      }
    },
    {
      "doubleSided": true,
      "name": "Decoration_3817d78",
      "pbrMetallicRoughness": {
        "baseColorTexture": {
          "index": 4
        },
        "metallicFactor": 0.0,
        "roughnessFactor": 0.0
      }
    }
  ],
  "meshes": [
    {
      "name": "Object_0",
      "primitives": [
        {
          "attributes": {
            "NORMAL": 1,
            "POSITION": 0,
            "TEXCOORD_0": 2
          },
          "indices": 3,
          "material": 1,
          "mode": 4
        }
      ]
    },
    {
      "name": "Object_1",
      "primitives": [
        {
          "attributes": {
            "NORMAL": 5,
            "POSITION": 4,
            "TEXCOORD_0": 6
          },
          "indices": 7,
          "material": 2,
          "mode": 4
        }
      ]
    },
    {
      "name": "Object_2",
      "primitives": [
        {
          "attributes": {
            "NORMAL": 9,
            "POSITION": 8,
            "TEXCOORD_0": 10
          },
          "indices": 11,
          "material": 3,
          "mode": 4
        }
      ]
    },
    {
      "name": "Object_3",
      "primitives": [
        {
          "attributes": {
            "NORMAL": 13,
            "POSITION": 12,
            "TEXCOORD_0": 14
          },
          "indices": 15,
          "material": 4,
          "mode": 4
        }
      ]
    },
    {
      "name": "Object_4",
      "primitives": [
        {
          "attributes": {
            "NORMAL": 17,
            "POSITION": 16,
            "TEXCOORD_0": 18
          },
          "indices": 19,
          "material": 5,
          "mode": 4
        }
      ]
    },
    {
      "name": "Object_5",
      "primitives": [
        {
          "attributes": {
            "NORMAL": 21,
            "POSITION": 20
          },
          "indices": 22,
          "material": 0,
          "mode": 4
        }
      ]
    },
    {
      "name": "Object_6",
      "primitives": [
        {
          "attributes": {
            "NORMAL": 24,
            "POSITION": 23
          },
          "indices": 25,
          "material": 0,
          "mode": 4
        }
      ]
    }
  ],
  "nodes": [
    {
      "children": [
        1
      ],
      "matrix": [
        1.0,
        0.0,
        0.0,
        0.0,
        0.0,
        2.220446049250313e-16,
        -1.0,
        0.0,
        0.0,
        1.0,
        2.220446049250313e-16,
        0.0,
        0.0,
        0.0,
        0.0,
        1.0
      ],
      "name": "Sketchfab_model"
    },
    {
      "children": [
        2,
        3,
        4,
        5,
        6,
        7,
        8
      ],
      "name": "Untitled Model.obj.cleaner.materialmerger.gles"
    },
    {
      "mesh": 0,
      "name": "Object_2"
    },
    {
      "mesh": 1,
      "name": "Object_3"
    },
    {
      "mesh": 2,
      "name": "Object_4"
    },
    {
      "mesh": 3,
      "name": "Object_5"
    },
    {
      "mesh": 4,
      "name": "Object_6"
    },
    {
      "mesh": 5,
      "name": "Object_7"
    },
    {
      "mesh": 6,
      "name": "Object_8"
    }
  ],
  "samplers": [
    {
      "magFilter": 9729,
      "minFilter": 9987,
      "wrapS": 10497,
      "wrapT": 10497
    }
  ],
  "scene": 0,
  "scenes": [
    {
      "name": "Sketchfab_Scene",
      "nodes": [
        0
      ]
    }
  ],
  "textures": [
    {
      "sampler": 0,
      "source": 0
    },
    {
      "sampler": 0,
      "source": 1
    },
    {
      "sampler": 0,
      "source": 2
    },
    {
      "sampler": 0,
      "source": 3
    },
    {
      "sampler": 0,
      "source": 4
    }
  ]
}
