<svg width="1516" height="230" viewBox="0 0 1516 230" fill="none" xmlns="http://www.w3.org/2000/svg">
<path d="M6.34613 100.196C1.20585 102.215 -1.32383 108.02 0.695923 113.16C2.71568 118.3 8.52003 120.83 13.6603 118.81L10.0032 109.503L6.34613 100.196ZM1158.34 228.536C1163.2 231.161 1169.27 229.35 1171.89 224.491C1174.52 219.633 1172.71 213.565 1167.85 210.94L1163.09 219.738L1158.34 228.536ZM959.593 57.7379L959.924 47.7433L959.593 57.7379ZM722.097 13.2372L721.575 3.25089L722.097 13.2372ZM300.901 159.378L292.598 164.951C294.933 168.43 298.444 170.102 300.786 170.969C303.379 171.927 306.327 172.535 309.325 172.952C315.356 173.792 323.194 174.07 332.342 173.998C350.725 173.852 376.045 172.262 406.333 170.059C467.129 165.637 548.785 158.681 638.313 155.393C727.83 152.105 824.883 152.5 916.196 162.731C1007.63 172.975 1092.59 193.008 1158.34 228.536L1163.09 219.738L1167.85 210.94C1098.85 173.66 1010.99 153.227 918.423 142.855C825.731 132.47 727.585 132.1 637.579 135.406C547.583 138.712 465.391 145.711 404.882 150.112C374.518 152.32 349.823 153.859 332.184 153.998C323.321 154.068 316.646 153.778 312.083 153.143C309.784 152.823 308.416 152.466 307.723 152.21C306.78 151.861 308.038 152.068 309.205 153.806L300.901 159.378ZM1505.09 70.2379L1496.22 74.8514C1495.62 73.6957 1495.08 71.9906 1495.26 69.9327C1495.44 67.8644 1496.28 66.2514 1497.11 65.1785C1497.89 64.1786 1498.68 63.6209 1499.07 63.3754C1499.48 63.1137 1499.77 63.0008 1499.8 62.9876C1499.84 62.9707 1499.53 63.0923 1498.66 63.2717C1497.84 63.4409 1496.73 63.6187 1495.3 63.7916C1489.46 64.4984 1480.04 64.9154 1467.03 65.031C1441.17 65.2609 1402.66 64.2974 1353.85 62.6077C1256.6 59.2417 1118.01 52.9714 959.924 47.7433L959.593 57.7379L959.262 67.7324C1117.77 72.9745 1255.17 79.2042 1353.16 82.5957C1401.95 84.2848 1440.86 85.2644 1467.21 85.0302C1480.3 84.9138 1490.68 84.497 1497.7 83.6467C1501.03 83.2438 1504.49 82.6515 1507.23 81.5575C1508.43 81.0768 1510.95 79.9524 1512.88 77.4846C1513.98 76.073 1514.97 74.1085 1515.18 71.6757C1515.39 69.2533 1514.77 67.1708 1513.96 65.6245L1505.09 70.2379ZM959.593 57.7379L959.924 47.7433C821.581 43.1682 651.495 61.7235 518.471 84.8507C451.943 96.4171 394.382 109.179 354.478 120.869C334.631 126.684 318.657 132.374 308.066 137.709C302.93 140.296 298.119 143.254 294.881 146.73C293.232 148.501 291.375 151.054 290.616 154.389C289.763 158.132 290.527 161.865 292.598 164.951L300.901 159.378L309.205 153.806C310.107 155.151 310.525 157.035 310.116 158.831C309.8 160.219 309.177 160.726 309.516 160.362C310.256 159.568 312.445 157.897 317.064 155.57C325.984 151.077 340.542 145.793 360.101 140.063C399.011 128.664 455.765 116.053 521.897 104.555C654.191 81.5548 822.799 63.2194 959.262 67.7324L959.593 57.7379ZM10.0032 109.503L13.6603 118.81C59.2429 100.9 154.521 81.222 280.083 63.8823C405.274 46.5938 559.599 31.7523 722.62 23.2236L722.097 13.2372L721.575 3.25089C558.043 11.8063 403.151 26.6971 277.347 44.0703C151.915 61.3921 54.4226 81.3052 6.34613 100.196L10.0032 109.503ZM722.097 13.2372L722.62 23.2236C894.152 14.2495 1087.73 25.3287 1239.35 40.2441C1315.13 47.699 1380.32 56.1002 1426.9 63.4032C1450.21 67.058 1468.74 70.4197 1481.57 73.2291C1488.02 74.641 1492.82 75.8693 1496 76.8745C1497.62 77.3867 1498.54 77.7557 1498.96 77.9545C1499.17 78.0571 1499.01 78.0021 1498.67 77.7572C1498.5 77.6373 1497.2 76.7331 1496.22 74.8514L1505.09 70.2379L1513.96 65.6245C1512.78 63.3521 1511.07 62.0329 1510.28 61.4745C1509.32 60.7911 1508.35 60.2743 1507.54 59.8925C1505.93 59.1226 1504.01 58.4332 1502.03 57.8053C1497.99 56.5301 1492.51 55.151 1485.85 53.6922C1472.46 50.7603 1453.48 47.3274 1429.99 43.6446C1382.97 36.2722 1317.4 27.8256 1241.31 20.3401C1089.18 5.37496 894.504 -5.79623 721.575 3.25089L722.097 13.2372Z" fill="#EFE7D8"/>
</svg>
